# AST/ASF file generated using VICON BodyLanguage
# -----------------------------------------------
:version 1.10
:name VICON
:units
  mass 1.0
  length 0.45
  angle deg
:documentation
   .ast/.asf automatically generated from VICON data using
   VICON BodyBuilder and BodyLanguage model FoxedUp or BRILLIANT.MOD
:root
   order TX TY TZ RX RY RZ
   axis XYZ
   position 0 0 0  
   orientation 0 0 0 
:bonedata
  begin
     id 1 
     name lhipjoint
     direction 0.528046 -0.759594 0.379717 
     length 2.39752 
     axis 0 0 0  XYZ
  end
  begin
     id 2 
     name lfemur
     direction 0.34202 -0.939693 0  
     length 7.31175  
     axis 0 0 20  XYZ
    dof rx ry rz
    limits (-160.0 20.0)
           (-70.0 70.0)
           (-60.0 70.0)
  end
  begin
     id 3 
     name ltibia
     direction 0.34202 -0.939693 0   
     length 7.52482   
     axis 0 0 20   XYZ
    dof rx
    limits (-10.0 170.0)
  end
  begin
     id 4 
     name lfoot
     direction 0.0675379 -0.185559 0.980309   
     length 2.00961   
     axis -90 7.62852e-016 20   XYZ
    dof rx rz
    limits (-45.0 90.0)
           (-70.0 20.0)
  end
  begin
     id 5 
     name ltoes
     direction 1.5352e-011 -4.22286e-011 1   
     length 1.01383   
     axis -90 7.62852e-016 20   XYZ
    dof rx
    limits (-90.0 20.0)
  end
  begin
     id 6 
     name rhipjoint
     direction -0.510274 -0.769251 0.384544   
     length 2.36742  
     axis 0 0 0  XYZ 
  end
  begin
     id 7 
     name rfemur
     direction -0.34202 -0.939693 0   
     length 7.45325   
     axis 0 0 -20   XYZ
    dof rx ry rz
    limits (-160.0 20.0)
           (-70.0 70.0)
           (-70.0 60.0)
  end
  begin
     id 8 
     name rtibia
     direction -0.34202 -0.939693 0   
     length 7.49587   
     axis 0 0 -20   XYZ
    dof rx
    limits (-10.0 170.0)
 end
 begin
     id 9 
     name rfoot
     direction -0.106475 -0.292536 0.950308   
     length 2.20898  
     axis -90 -7.62852e-016 -20   XYZ
    dof rx rz
    limits (-45.0 90.0)
           (-20.0 70.0)
  end
  begin
     id 10 
     name rtoes
     direction -1.53597e-011 -4.22023e-011 1   
     length 1.10065   
     axis -90 -7.62852e-016 -20   XYZ
    dof rx
    limits (-90.0 20.0)
  end
  begin
     id 11 
     name lowerback
     direction 0.0260024 0.998026 -0.0571652   
     length 2.11214   
     axis 0 0 0   XYZ
    dof rx ry rz
    limits (-20.0 45.0)
           (-30.0 30.0)
           (-30.0 30.0)
  end
  begin
     id 12 
     name upperback
     direction 0.0216202 0.999542 -0.0211766   
     length 2.11689   
     axis 0 0 0   XYZ
    dof rx ry rz
    limits (-20.0 45.0)
           (-30.0 30.0)
           (-30.0 30.0)
  end
  begin
     id 13 
     name thorax
     direction 0.00883312 0.999944 0.00589057   
     length 2.11821   
     axis 0 0 0   XYZ
    dof rx ry rz
    limits (-20.0 45.0)
           (-30.0 30.0)
           (-30.0 30.0)
  end
  begin
     id 14 
     name lowerneck
     direction -0.059386 0.994433 0.0870401   
     length 1.81176   
     axis 0 0 0   XYZ
    dof rx ry rz
    limits (-20.0 45.0)
           (-30.0 30.0)
           (-30.0 30.0)
  end
  begin
     id 15 
     name upperneck
     direction 0.0506457 0.97328 -0.223967   
     length 1.82382   
     axis 0 0 0   XYZ
    dof rx ry rz
    limits (-20.0 45.0)
           (-30.0 30.0)
           (-30.0 30.0)
  end
  begin
     id 16
     name head
     direction 0.0205902 0.996147 -0.0852487  
     length 1.84805  
     axis 0 0 0   XYZ
    dof rx ry rz
    limits (-20.0 45.0)
           (-30.0 30.0)
           (-30.0 30.0)
  end
  begin
     id 17 
     name lclavicle
     direction 0.949493 0.303881 -0.0782325  
     length 3.60584  
     axis 0 0 0   XYZ
    dof ry rz
    limits (-20.0 10.0)
           (0.0 20.0)
  end
  begin
     id 18 
     name lhumerus
     direction 1 -4.48965e-011 1.48782e-027   
     length 4.95681   
     axis 180 -30 -90   XYZ
    dof rx ry rz
    limits (-60.0 90.0)
           (-90.0 90.0)
           (-90.0 90.0)
  end
  begin
     id 19
     name lradius
     direction 1 -4.48952e-011 2.06528e-027   
     length 3.40915   
     axis 180 -30 -90   XYZ
    dof rx
    limits (-10.0 170.0)
  end
  begin
     id 20
     name lwrist
     direction 1 -4.48964e-011 1.28021e-027   
     length 1.70457   
     axis -1.61767e-015 90 90   XYZ
    dof ry
    limits (-180.0 0.0)
 end
  begin
     id 21 
     name lhand
     direction 1 -4.49094e-011 2.54887e-027   
     length 0.616403   
     axis -1.63363e-015 90 90   XYZ
    dof rx rz
    limits (-90.0 90.0)
           (-45.0 45.0)
  end
  begin
     id 22 
     name lfingers
     direction 1 -4.49002e-011 5.11407e-027   
     length 0.49696   
     axis -3.26723e-015 90 90   XYZ
    dof rx
    limits (0.0 90.0)
  end
  begin
     id 23
     name lthumb
     direction 0.707107 -6.34998e-011 0.707107   
     length 0.713539   
     axis -90 45 -2.25915e-014   XYZ
    dof rx rz
    limits (-45.0 45.0)
           (-45.0 45.0)
  end
  begin
     id 24 
     name rclavicle
     direction -0.937751 0.334612 -0.0930482   
     length 3.46287  
     axis 0 0 0   XYZ 
    dof ry rz
    limits (-10.0 20.0)
           (-20.0 0.0)
  end
  begin
     id 25 
     name rhumerus
     direction -1 -4.48962e-011 3.59972e-027  
     length 5.352   
     axis 180 30 90   XYZ
    dof rx ry rz
    limits (-90.0 60.0)
           (-90.0 90.0)
           (-90.0 90.0)
  end
  begin
     id 26 
     name rradius
     direction -1 -4.48987e-011 -3.76925e-027   
     length 3.43721   
     axis 180 30 90   XYZ
    dof rx
    limits (-10.0 170.0)
  end
  begin
     id 27 
     name rwrist
     direction -1 -4.48943e-011 1.28112e-027   
     length 1.7186   
     axis -1.61767e-015 -90 -90   XYZ
    dof ry
    limits (-180.0 0.0)
  end
  begin
     id 28
     name rhand
     direction -1 -4.49027e-011 2.55483e-027   
     length 0.72009   
     axis -1.63363e-015 -90 -90   XYZ
    dof rx rz
    limits (-90.0 90.0)
           (-45.0 45.0)
  end
  begin
     id 29
     name rfingers
     direction -1 -4.48827e-011 5.14506e-027   
     length 0.580555   
     axis -3.26723e-015 -90 -90   XYZ
    dof rx
    limits (0.0 90.0)
  end
  begin
     id 30
     name rthumb
     direction -0.707107 -6.34936e-011 0.707107   
     length 0.833564   
     axis -90 -45 2.25915e-014   XYZ
    dof rx rz
    limits (-45.0 45.0)
           (-45.0 45.0)
  end
:hierarchy
  begin
    root lhipjoint rhipjoint lowerback
    lhipjoint lfemur
    lfemur ltibia
    ltibia lfoot
    lfoot ltoes
    rhipjoint rfemur
    rfemur rtibia
    rtibia rfoot
    rfoot rtoes
    lowerback upperback
    upperback thorax
    thorax lowerneck lclavicle rclavicle
    lowerneck upperneck
    upperneck head
    lclavicle lhumerus
    lhumerus lradius
    lradius lwrist
    lwrist lhand lthumb
    lhand lfingers
    rclavicle rhumerus
    rhumerus rradius
    rradius rwrist
    rwrist rhand rthumb
    rhand rfingers
  end

#!OML:ASF H:\Terrain\Patient Classification 1\Terrain2\Thursday\justin.ASF
:FULLY-SPECIFIED
:DEGREES
767
root 17.6845 20.4863 -9.75062 -0.00945196 9.69977 -7.14047
lowerback 8.11885 -0.0899105 6.34752
upperback 3.38904 0.451852 4.47098
thorax -1.02029 0.254306 1.02586
lowerneck -10.7999 -3.56366 -10.5283
upperneck 39.8364 -4.58246 5.84212
head 16.5802 -2.64749 3.74807
rclavicle 4.77083e-014 3.10104e-014
rhumerus -31.1766 -13.5298 -77.1551
rradius 25.621
rwrist -9.6844
rhand -22.1784 11.8034
rfingers 7.12502
rthumb 4.23646 -18.1342
lclavicle 4.77083e-014 3.10104e-014
lhumerus -35.1505 1.09396 84.6563
lradius 43.6863
lwrist 7.09797
lhand -18.7406 22.104
lfingers 7.12502
lthumb 7.55558 51.9491
rfemur -5.58519 -7.33237 32.5311
rtibia 28.8454
rfoot -22.6472 -8.58896
rtoes 14.9404
lfemur -28.8877 1.90742 -8.26337
ltibia 67.2485
lfoot -10.477 -5.8637
ltoes -8.38204
768
root 17.6964 20.4816 -9.68966 0.00453652 9.45268 -7.11767
lowerback 8.21022 -0.0850333 6.32743
upperback 3.32433 0.470785 4.50506
thorax -1.1382 0.259907 1.07054
lowerneck -10.5692 -3.52218 -10.5928
upperneck 39.7911 -4.50073 5.7719
head 16.4882 -2.63489 3.74024
rclavicle -2.66371e-014 -3.73715e-014
rhumerus -31.084 -13.2601 -77.2169
rradius 25.5003
rwrist -9.71642
rhand -22.0418 11.6772
rfingers 7.12502
rthumb 4.36841 -18.2578
lclavicle -2.66371e-014 -3.73715e-014
lhumerus -35.4548 1.1365 84.7411
lradius 43.6985
lwrist 7.0443
lhand -18.5571 22.1912
lfingers 7.12502
lthumb 7.73262 52.0298
rfemur -5.22674 -7.33258 32.4582
rtibia 28.6384
rfoot -22.7706 -8.41135
rtoes 15.0733
lfemur -29.486 1.40094 -8.27924
ltibia 66.4502
lfoot -10.7476 -5.93105
ltoes -8.09468
769
root 17.7134 20.473 -9.6269 -0.0896861 9.29436 -7.27699
lowerback 8.25696 -0.0441033 6.68366
upperback 3.4054 0.551494 4.53094
thorax -1.07262 0.304946 0.892711
lowerneck -10.404 -3.6181 -10.7188
upperneck 39.4533 -4.60964 5.74031
head 16.2846 -2.69758 3.71641
rclavicle 4.33351e-014 6.36111e-015
rhumerus -30.7944 -13.2893 -77.2468
rradius 25.3757
rwrist -9.65833
rhand -21.9263 10.4659
rfingers 7.12502
rthumb 4.47991 -19.4667
lclavicle 4.33351e-014 6.36111e-015
lhumerus -35.5279 0.91197 84.9231
lradius 43.7743
lwrist 6.98344
lhand -18.5907 22.1611
lfingers 7.12502
lthumb 7.70017 52.0009
rfemur -4.80525 -7.50509 32.5177
rtibia 28.4127
rfoot -22.7335 -8.08935
rtoes 15.5573
lfemur -29.9843 0.845833 -8.11815
ltibia 65.5427
lfoot -11.1853 -5.89117
ltoes -8.79076
770
root 17.726 20.4647 -9.5637 -0.131829 9.02766 -7.40768
lowerback 8.32521 0.0560067 6.96676
upperback 3.47433 0.706474 4.48705
thorax -1.028 0.386331 0.676386
lowerneck -10.3932 -3.70136 -10.6211
upperneck 39.3464 -4.76884 5.75667
head 16.2408 -2.74516 3.67506
rclavicle 1.68967e-014 3.65764e-014
rhumerus -30.6254 -13.3314 -77.4263
rradius 25.4388
rwrist -9.77595
rhand -21.9036 10.1689
rfingers 7.12502
rthumb 4.50187 -19.7633
lclavicle 1.68967e-014 3.65764e-014
lhumerus -35.5222 0.603778 84.9972
lradius 43.7683
lwrist 7.03737
lhand -18.5863 22.5232
lfingers 7.12502
lthumb 7.7045 52.3628
rfemur -4.39635 -7.33824 32.5998
rtibia 28.1554
rfoot -22.6767 -7.91406
rtoes 15.9902
lfemur -30.4784 0.431731 -7.96759
ltibia 64.5199
lfoot -11.6265 -5.78572
ltoes -9.97859
771
root 17.736 20.4662 -9.49744 -0.0553975 8.65048 -7.38562
lowerback 8.43917 0.177202 6.95982
upperback 3.42222 0.881591 4.47643
thorax -1.13856 0.469696 0.652402
lowerneck -10.3888 -3.74389 -10.6801
upperneck 39.4888 -4.85308 5.83299
head 16.3319 -2.78242 3.71195
rclavicle -5.56597e-015 4.6118e-014
rhumerus -30.624 -13.1088 -77.5612
rradius 25.5224
rwrist -10.0846
rhand -21.7203 11.0328
rfingers 7.12502
rthumb 4.67884 -18.8955
lclavicle -5.56597e-015 4.6118e-014
lhumerus -35.518 0.536679 85.0615
lradius 43.4823
lwrist 7.1822
lhand -18.2834 22.3417
lfingers 7.12502
lthumb 7.99682 52.1704
rfemur -4.04566 -7.10485 32.5516
rtibia 27.901
rfoot -22.7083 -7.79764
rtoes 15.655
lfemur -31.0106 0.14812 -7.9694
ltibia 63.3824
lfoot -12.0199 -5.66518
ltoes -10.1815
772
root 17.7478 20.4662 -9.43157 0.0117206 8.39399 -7.42014
lowerback 8.4193 0.1792 6.98339
upperback 3.44261 0.88337 4.54632
thorax -1.10682 0.471253 0.712127
lowerneck -10.4002 -3.74833 -10.9216
upperneck 39.4646 -4.79557 5.83605
head 16.3267 -2.79461 3.76499
rclavicle -1.59028e-014 -2.22639e-014
rhumerus -30.4464 -12.4958 -77.7609
rradius 25.6499
rwrist -10.4162
rhand -21.8224 11.4222
rfingers 7.12502
rthumb 4.58031 -18.5083
lclavicle -1.59028e-014 -2.22639e-014
lhumerus -35.5116 0.741372 85.1562
lradius 43.2529
lwrist 7.2168
lhand -17.5657 21.8212
lfingers 7.12502
lthumb 8.68942 51.6224
rfemur -3.66673 -7.11568 32.5563
rtibia 27.6224
rfoot -22.8074 -7.65737
rtoes 14.6478
lfemur -31.5554 -0.266702 -7.93321
ltibia 62.134
lfoot -12.3184 -5.40709
ltoes -10.5998
